<?xml version="1.0" encoding="UTF-8"?><svg id="Layer_1" xmlns="http://www.w3.org/2000/svg" viewBox="0 0 71.26 9.41"><defs>
<style>.cls-1{fill:#fff;}</style></defs><path class="cls-1" d="m0,8.26V1.15h1.15V0h6.48v2.48H3.04v4.44h4.6v2.48H1.15v-1.15H0Z"/><path class="cls-1" d="m11.45,0v3.41h1.63V0h3v9.41h-3v-3.41h-1.63v3.41h-3V0h3Z"/><path class="cls-1" d="m20,0v9.41h-2.96V0h2.96Z"/><path class="cls-1" d="m23.96,0v6.92h4.03v2.48h-7.03V0h3Z"/><path class="cls-1" d="m31.74,0v6.92h4.03v2.48h-7.03V0h3Z"/><path class="cls-1" d="m37.15,7.97v-1.7h-.71V0h3v6.89h1.33V0h3v6.26h-.71v1.7h-1.03v1.44h-3.85v-1.44h-1.03Z"/><path class="cls-1" d="m47.63,0v9.41h-2.96V0h2.96Z"/><path class="cls-1" d="m51.59,0v6.92h4.03v2.48h-7.03V0h3Z"/><path class="cls-1" d="m59.36,0v6.92h4.03v2.48h-7.03V0h3Z"/><path class="cls-1" d="m71.26,0v2.48h-4.01v.96h4.01v2.52h-4.01v.96h4.01v2.48h-7.12V0h7.12Z"/></svg>